<svg id="logo" xmlns="http://www.w3.org/2000/svg" viewBox="0 0 260 80"><style>.st0{fill:#fff}</style><path class="st0" d="M38 78C17 78 0 60.9 0 40S17 2 38 2s38 17 38 38-17.1 38-38 38zm0-72.5C19 5.5 3.5 21 3.5 40S19 74.5 38 74.5 72.4 59 72.4 40 57 5.5 38 5.5z"/><path class="st0" d="M61 27.3c-4.6.6-5.7 1.2-8.2 7.4C51 39.2 41.6 62 38.2 70.5H36c-4-11-9.9-26.9-13.8-37-1.9-5-3.1-5.7-7.2-6.1v-1.9h17.3v1.9c-5 .5-5.3 1.4-4.4 3.9 1.7 5 6.7 18.6 11 29.9 3.6-8.8 8.1-19.9 11.3-28.5 1.5-4 .7-4.6-4.9-5.3v-1.9H61v1.8z"/><path d="M38.2 21.2c-.4 0-.7 0-1.1-.1-2.4-.5-4-2.6-3.6-4.7s3-3 5.5-2.5c.1 0 .7-3.2 2-4h1v2s-.9.5-2 2c2 .7 2.7 2.5 2.3 4.4-.3 1.8-2.1 2.9-4.1 2.9zm-.3-6.9c-1.6 0-3 1.2-3 2.8s1.3 2.8 3 2.8 3-1.2 3-2.8c0-1.1-.7-2.1-1.8-2.6 0 0 0 .1-.1.1 0 .1-.2.1-.2.1-.1 0-.1-.2-.1-.2v-.1c-.2-.1-.5-.1-.8-.1z" fill="#f77a86"/><path fill="none" stroke="#f77a86" stroke-width="2" stroke-miterlimit="10" d="M90 52h170"/><path class="st0" d="M89.2 61.8h4.1v.6l-1.9.2h-.3l-1.9-.2v-.6zm0 9.2l1.9-.2h.3l1.9.2v.6h-4.1V71zm1.4-4v-.7-4.5H92v9.8h-1.4V67zm3.8 1.2c-.2-.8-.8-1.1-1.8-1.1h-1.3v-.7h1.1c1.1 0 1.5-.2 2.2-2 .9-2.3 1.5-2.8 2.4-2.9.5 0 .7.4.7.8s-.3.8-1 .8c-.5 0-.9-.1-1.2-.2l1.1-.7c-.6.7-.9 1.2-1.4 2.4-.7 1.6-1.2 2-2.3 2.2l-.1-.4c1.7.1 2.6.6 3.1 1.9l.9 2.7-.3-.3 1.8.2v.6c-.3.1-.9.1-1.3.1-.9 0-1.4-.2-1.6-.9l-1-2.5zM108.5 66.7c0 3.2-2.2 5.1-4.5 5.1s-4.5-1.8-4.5-5.1c0-3.2 2.2-5.1 4.5-5.1s4.5 1.7 4.5 5.1zm-4.5 4.4c2.1 0 2.9-2.2 2.9-4.4s-.9-4.4-2.9-4.4-2.9 2.2-2.9 4.4.9 4.4 2.9 4.4zM110.7 62.3v-.6h4.1v.6l-1.9.2h-.3l-1.9-.2zm2.2 8.5l1.9.2v.6h-4.1V71l1.9-.2h.3zm-.9-4.5v-4.5h1.4v9.7H112v-5.2zm.7.6v-.7h6.2v.7h-6.2zm4.1-4.6v-.6h4.1v.6l-1.9.2h-.3l-1.9-.2zm2.2 8.5l1.9.2v.6h-4.1V71l1.9-.2h.3zm-.8-4.5v-4.5h1.4v9.7h-1.4v-5.2zM122.4 70.9h9.5l-.1 3.3h-.8l-.4-3.3.6.7H123l.7-.7-.5 3.3h-.8v-3.3zm3.8-9.1h.9c-.2 4.8-1.5 7.8-3 9.4l-.8-.3c1.5-1.9 2.7-4.6 2.9-9.1zm-1.4 0h1.7v.8h-.1l-1.6-.2v-.6zm1.7 0h3.3v.7h-3.3v-.7zm2.6 5.2v-.7-4.5h1.4v9.7h-1.4V67zm.7-5.2h2.1v.6l-1.9.2h-.1v-.8zM133.9 61.8h4.1v.6l-1.9.2h-.3l-1.9-.2v-.6zm0 9.2l1.9-.2h.3l1.9.2v.6h-4.1V71zm1.4-4v-.7-4.5h1.4v9.8h-1.4V67zm.5 3.2l6.6-8.1v1.1l-6.6 8v-1zm4.4-8.4h4.1v.6l-1.9.2h-.3l-1.9-.2v-.6zm0 9.2l1.9-.2h.3l1.9.2v.6h-4.1V71zm1.4-4.3v-5h1.4v9.8h-1.4v-4.8zM146.7 62.5l.7-.7-.5 2.6h-.9l.1-2.6h8l.1 2.6h-.8l-.5-2.6.7.7h-6.9zm3.6 8.3l2.1.2v.6H148V71l2.1-.2h.2zm-.8-4.5v-4.5h1.4v9.7h-1.4v-5.2zM156 62.3v-.6h2.1v.8h-.1l-2-.2zm2.1 8.5v.8H156V71l1.9-.2h.2zm-.7-4.5v-4.5h1.4v9.8h-1.4v-5.3zm4.7-4.5l.7.7h-4.7v-.7h5.2l.1 2.6h-.8l-.5-2.6zm-.7 5.1h-3.3v-.7h3.3v.7zm2.3 2.1l-.1 2.6h-5.5v-.7h5l-.7.7.5-2.6h.8zm-2.8-2.6l.2-1.6h.7v3.5h-.7l-.2-1.6v-.3zM165.7 62.3v-.6h2.1v.8h-.1l-2-.2zm2.2 8.5l1.9.2v.6h-4.1V71l1.9-.2h.3zm-.9-4.5v-4.5h1.4v9.8H167v-5.3zm2.2 1.4h-1.5V67h1.7c1.8 0 2.5-1 2.5-2.3 0-1.4-.8-2.2-2.6-2.2h-1.6v-.7h1.9c2.4 0 3.7 1.2 3.7 2.9 0 1.6-1.1 3-4.1 3zM182.7 70.1v.8l-.9.2.4-2.2h.9L183 71c-.9.5-1.9.7-3 .7-3 0-5-2.1-5-5.1 0-2.9 2.1-5.1 4.9-5.1.8 0 1.8.1 2.8.7l.1 2.1h-.8l-.4-2.2.9.2v.9c-.8-.8-1.7-1-2.4-1-2 0-3.6 1.5-3.6 4.4s1.4 4.4 3.5 4.4c1 .1 1.9-.2 2.7-.9zM185.1 61.8h4.1v.6l-1.9.2h-.3l-1.9-.2v-.6zm0 9.2l1.9-.2h.3l1.9.2v.6h-4.1V71zm1.4-4v-.7-4.5h1.4v9.8h-1.4V67zm3.8 1.2c-.2-.8-.8-1.1-1.8-1.1h-1.3v-.7h1.1c1.1 0 1.5-.2 2.2-2 .9-2.3 1.5-2.8 2.4-2.9.5 0 .7.4.7.8s-.3.8-1 .8c-.5 0-.9-.1-1.2-.2l1.1-.7c-.6.7-.9 1.2-1.4 2.4-.7 1.6-1.2 2-2.3 2.2l-.1-.4c1.7.1 2.6.6 3.1 1.9l.9 2.7-.3-.3 1.6.3v.6c-.3.1-.9.1-1.3.1-.9 0-1.4-.2-1.6-.9l-.8-2.6zM195.4 61.8h4.1v.6l-1.9.2h-.3l-1.9-.2v-.6zm0 9.2l1.9-.2h.3l1.9.2v.6h-4.1V71zm1.4-4v-.7-4.5h1.4v9.8h-1.4V67zm.5 3.2l6.6-8.1v1.1l-6.6 8v-1zm4.4-8.4h4.1v.6l-1.9.2h-.3l-1.9-.2v-.6zm0 9.2l1.9-.2h.3l1.9.2v.6h-4.1V71zm1.4-4.3v-5h1.4v9.8H203c.1-1.4.1-2.9.1-4.8zM207.9 61.8h4.1v.6l-1.9.2h-.3l-1.9-.2v-.6zm0 9.2l1.9-.2h.3l1.9.2v.6h-4.1V71zm1.4-4v-.7-4.5h1.4v9.8h-1.4V67zm.5 3.2l6.6-8.1v1.1l-6.6 8v-1zm.8-11.3c.1-.2.3-.4.6-.4.4 0 .7.3.7.9 0 .6 0 .8-.1 1.2l-.2-.9c.2.4 1 .6 1.5.6s1.3-.2 1.5-.6l-.2.9c-.1-.4-.1-.6-.1-1.2 0-.7.3-.9.7-.9.3 0 .5.2.6.4 0 1.2-1 2.1-2.5 2.1s-2.5-.9-2.5-2.1zm3.6 2.9h4.1v.6l-1.9.2h-.3l-1.9-.2v-.6zm0 9.2l1.9-.2h.3l1.9.2v.6h-4.1V71zm1.4-4.3v-5h1.4v9.8h-1.4v-4.8zM224 70.9h9.5l-.1 3.3h-.8l-.4-3.3.6.7h-8.2l.7-.7-.5 3.3h-.8v-3.3zm3.7-9.1h.9c-.2 4.8-1.5 7.8-3 9.4l-.8-.3c1.6-1.9 2.8-4.6 2.9-9.1zm-1.4 0h1.7v.8l-1.6-.2v-.6zm1.8 0h3.3v.7h-3.3v-.7zm2.6 5.2v-.7-4.5h1.4v9.7h-1.4V67zm.6-5.2h2.1v.6l-1.9.2h-.1v-.8zM244.5 66.7c0 3.2-2.2 5.1-4.5 5.1s-4.5-1.8-4.5-5.1c0-3.2 2.2-5.1 4.5-5.1 2.3-.1 4.5 1.7 4.5 5.1zm-4.5 4.4c2.1 0 2.9-2.2 2.9-4.4s-.9-4.4-2.9-4.4c-2.1 0-2.9 2.2-2.9 4.4s.9 4.4 2.9 4.4zM246.6 61.8h1.9v.8h-.2l-1.8-.2v-.6zm0 9.2l1.5-.2h.3l1.4.2v.6h-3.3V71zm1.3-9.2h.6l.1 4.4v5.5h-.7v-9.9zm0 0h1.3l3.6 8.8h-.5l3.4-8.8h.8l-3.8 9.8h-.7l-4.1-9.8zm6.7 9.2l1.8-.2h.3l1.9.2v.6h-4V71zm1.3-4v-5.3h1.3v9.8h-1.4c.1-1.4.1-2.9.1-4.5zm.6-5.2h2.1v.6l-1.9.2h-.1v-.8z"/><g><path class="st0" d="M121.7 8.9c-3.5.5-4.4.9-6.3 5.7-1.4 3.5-8.7 21.1-11.2 27.6h-1.7c-3.1-8.5-7.6-20.8-10.6-28.5-1.5-3.9-2.4-4.4-5.6-4.7V7.4h13.4v1.5c-3.9.4-4.1 1.1-3.4 3 1.3 3.8 5.2 14.3 8.5 23 2.8-6.8 6.3-15.3 8.7-22 1.2-3 .5-3.5-3.8-4V7.4h12.1v1.5zM151.1 33.2c-.3 1.4-1.7 6.8-2.3 8.4h-25.5v-1.5c4.9-.4 5.3-.8 5.3-5.2V14.2c0-4.7-.6-4.9-4.5-5.3V7.4h16.1c4.9 0 7-.1 7.6-.1.1 1.3.3 5.3.5 8l-1.6.3c-.5-1.8-1-2.9-1.6-4-.8-1.7-2-2.1-5.2-2.1h-5c-1.6 0-1.7.2-1.7 1.7v11.6h5.8c3.9 0 4.2-.8 4.8-4.4h1.6v10.8h-1.6c-.7-3.8-1.1-4.3-4.9-4.3h-5.8v10.5c0 3.7 1.2 4 3.8 4h4.9c3.2 0 3.7-.5 4.9-1.8 1-1.1 2.1-3.3 2.8-4.8l1.6.4zM187.6 42c-.7 0-1.3-.1-1.9-.1-3.8-.3-5.9-1.3-8.2-4.5-1.9-2.7-3.8-6-5.5-8.7-1.1-1.7-1.7-2-4.4-2h-1.8V35c0 4.5.6 4.7 4.8 5.2v1.5h-14v-1.5c4.4-.5 4.7-.7 4.7-5.2V14c0-4.5-.6-4.6-4.7-5.1V7.4H170c3.8 0 6.4.5 8.4 1.8 2.2 1.4 3.6 3.7 3.6 6.9 0 4.5-2.9 7.4-6.8 9 .9 1.6 3.2 5.2 4.8 7.5 1.9 2.8 2.9 4.1 4.2 5.4 1.4 1.5 2.6 2.1 3.8 2.4l-.4 1.6zm-19.4-17.1c2.7 0 4.5-.4 5.8-1.5 2-1.5 2.9-3.6 2.9-6.5 0-5.6-3.7-7.7-7.8-7.7-1.5 0-2.4.2-2.8.5-.5.4-.6.9-.6 2.3v12.9h2.5zM226.5 8.9c-3.4.4-4.5.9-4.6 3.3-.1 1.7-.2 3.9-.2 8.8v21h-2l-22.5-27.5v13.1c0 4.7.2 7.1.3 8.6.1 2.7 1.4 3.5 5.2 3.8v1.5h-12.8V40c3.3-.3 4.5-1.1 4.7-3.6.2-1.7.3-4 .3-8.8V14.2c0-1.5-.1-2.3-1.1-3.5-1-1.3-2.1-1.6-4.7-1.9V7.4h7.9l22.3 26.4V21c0-4.9-.1-7.1-.3-8.7-.2-2.4-1.4-3.1-5.6-3.4V7.4h13v1.5zM259.1 33.2c-.3 1.4-1.7 6.8-2.3 8.4h-25.5v-1.5c4.9-.4 5.3-.8 5.3-5.2V14.2c0-4.7-.6-4.9-4.5-5.3V7.4h16.1c4.9 0 7-.1 7.6-.1.1 1.3.3 5.3.5 8l-1.6.3c-.5-1.8-1-2.9-1.6-4-.8-1.7-2-2.1-5.2-2.1h-5c-1.6 0-1.7.2-1.7 1.7v11.6h5.8c3.9 0 4.2-.8 4.8-4.4h1.6v10.8h-1.6c-.7-3.8-1.1-4.3-4.9-4.3h-5.8v10.5c0 3.7 1.2 4 3.8 4h4.9c3.2 0 3.7-.5 4.9-1.8 1-1.1 2.1-3.3 2.8-4.8l1.6.4z"/></g></svg>